<?xml version="1.0" encoding="iso-8859-1"?>
<!-- Uploaded to: SVG Repo, www.svgrepo.com, Generator: SVG Repo Mixer Tools -->
<svg fill="#000000" height="800px" width="800px" version="1.1" id="Layer_1" xmlns="http://www.w3.org/2000/svg" xmlns:xlink="http://www.w3.org/1999/xlink" 
	 viewBox="0 0 512.001 512.001" xml:space="preserve">
<g>
	<g>
		<path d="M424.19,139.599l-23.948,23.948l20.406,20.406l-103.211,85.878l-4.405-101.324h-89.595V49.968h-33.868v118.539h-69.73
			l-33.153-33.153c-19.807-19.807-52.038-19.807-71.846,0C5.27,144.924,0,157.683,0,171.278c0,13.596,5.27,26.354,14.839,35.922
			l79.973,79.973l-7.602,174.86h238.583l-2.504-57.587l144.358-173.494l20.406,20.406l23.948-23.948L424.19,139.599z
			 M96.807,241.274l-58.021-58.022c-3.171-3.171-4.918-7.424-4.918-11.974c0-4.55,1.746-8.803,4.919-11.975
			c3.302-3.302,7.637-4.952,11.975-4.952c4.335,0,8.674,1.651,11.974,4.952l36.068,36.068L96.807,241.274z M122.583,428.165
			l9.816-225.789h57.167v73.381h33.868v-73.381h57.167l9.816,225.789H122.583z M321.101,354.126l-1.816-41.773l118.87-98.907
			L321.101,354.126z"/>
	</g>
</g>
</svg>